HIERARCHY
ROOT Hips
{
  OFFSET 57.8838 95.319 338.509
  CHANNELS 6 Xposition Yposition Zposition Zrotation Xrotation Yrotation
  JOINT LeftUpLeg
  {
    OFFSET 8.64259 1.95398 -2.38835
    CHANNELS 3 Zrotation Xrotation Yrotation
    JOINT LeftLeg
    {
      OFFSET 43.7702 0 0
      CHANNELS 3 Zrotation Xrotation Yrotation
      JOINT LeftFoot
      {
        OFFSET 40.6238 0 0
        CHANNELS 3 Zrotation Xrotation Yrotation
        JOINT LeftToeBase
        {
          OFFSET 12.7242 0 0
          CHANNELS 3 Zrotation Xrotation Yrotation
          End Site
          {
            OFFSET 0 0 0
          }
        }
      }
    }
  }
  JOINT RightUpLeg
  {
    OFFSET -8.2249 1.95398 -2.59336
    CHANNELS 3 Zrotation Xrotation Yrotation
    JOINT RightLeg
    {
      OFFSET 43.5653 0 0
      CHANNELS 3 Zrotation Xrotation Yrotation
      JOINT RightFoot
      {
        OFFSET 40.6238 0 0
        CHANNELS 3 Zrotation Xrotation Yrotation
        JOINT RightToeBase
        {
          OFFSET 12.7242 0 0
          CHANNELS 3 Zrotation Xrotation Yrotation
          End Site
          {
            OFFSET 0 0 0
          }
        }
      }
    }
  }
  JOINT Spine
  {
    OFFSET 0.165834 0.87714 6.61349
    CHANNELS 3 Zrotation Xrotation Yrotation
    JOINT Spine1
    {
      OFFSET 7.38963 1.71661e-005 0
      CHANNELS 3 Zrotation Xrotation Yrotation
      JOINT Spine2
      {
        OFFSET 11.9445 1.14441e-005 0
        CHANNELS 3 Zrotation Xrotation Yrotation
        JOINT Spine3
        {
          OFFSET 14.7254 4.19617e-005 0
          CHANNELS 3 Zrotation Xrotation Yrotation
          JOINT Spine4
          {
            OFFSET 10.9679 0 0
            CHANNELS 3 Zrotation Xrotation Yrotation
            JOINT RightShoulder
            {
              OFFSET 2.46616 -1.6653 3.69651
              CHANNELS 3 Zrotation Xrotation Yrotation
              JOINT RightArm
              {
                OFFSET 13.0012 0 0
                CHANNELS 3 Zrotation Xrotation Yrotation
                JOINT RightForeArm
                {
                  OFFSET 28.7848 1.62311e-005 0
                  CHANNELS 3 Zrotation Xrotation Yrotation
                  JOINT RightHand
                  {
                    OFFSET 26.5688 1.62095e-005 0
                    CHANNELS 3 Zrotation Xrotation Yrotation
                    End Site
                    {
                      OFFSET 0 0 0
                    }
                  }
                }
              }
            }
            JOINT LeftShoulder
            {
              OFFSET 2.38034 -1.29275 -3.7523
              CHANNELS 3 Zrotation Xrotation Yrotation
              JOINT LeftArm
              {
                OFFSET 16.3182 6.07031e-005 0
                CHANNELS 3 Zrotation Xrotation Yrotation
                JOINT LeftForeArm
                {
                  OFFSET 27.0901 0 0
                  CHANNELS 3 Zrotation Xrotation Yrotation
                  JOINT LeftHand
                  {
                    OFFSET 24.5451 1.51738e-005 0
                    CHANNELS 3 Zrotation Xrotation Yrotation
                    End Site
                    {
                      OFFSET 0 0 0
                    }
                  }
                }
              }
            }
            JOINT Neck
            {
              OFFSET 5.0226 -0.0266342 0
              CHANNELS 3 Zrotation Xrotation Yrotation
              JOINT Head
              {
                OFFSET 6.69364 2.86102e-005 0
                CHANNELS 3 Zrotation Xrotation Yrotation
                End Site
                {
                  OFFSET 0 0 0
                }
              }
            }
          }
        }
      }
    }
  }
}
MOTION
Frames:	12
Frame Time:	0.0416667
184.162 98.8125 -191.415 98.7777 53.2593 84.7889 -179.719 6.33786 87.2216 -20.1023 17.3054 1.59198 58.6405 1.7012 12.2107 37.3054 3.45303 0.103877 174.87 8.57302 93.7572 -26.7187 -6.83218 -0.449097 65.1673 -2.76982 6.59799 29.1954 -0.600933 1.72571 0.00708965 8.08213 -90.2609 10.7093 -0.106088 -0.508018 -0.961766 -0.128341 -0.50286 -23.4961 0.0515012 -0.516408 -3.48346 0.0514947 -0.516414 95.4217 -53.6753 -92.001 27.5125 -9.52984 -11.4701 1.09521 -9.22666 -18.0547 -13.4571 -0.63816 0.33124 -82.4598 -56.1206 90.5755 -33.6122 -15.4465 -26.2183 -3.93779 51.3224 0.262486 1.69169 -0.418451 -15.3591 -21.4807 -13.9914 19.4172 35.9964 -19.8801 -19.8322 
181.108 96.1517 -187.969 98.2928 54.3186 82.8791 178.072 16.3369 84.2501 -32.1362 15.4566 1.6392 58.7557 2.47602 12.9307 40.4071 4.708 -0.0451814 173.104 21.0984 91.0786 -42.2372 -7.46727 0.453657 65.4441 -2.7011 6.96195 29.3241 -0.693214 -1.09922 0.13754 8.70071 -90.1285 9.47123 0.216233 -0.262337 -2.19974 0.204476 -0.271593 -24.7348 0.285084 -0.185216 -4.72219 0.28508 -0.185216 95.3386 -51.7349 -92.3712 29.6943 -8.61073 -10.5521 0.777284 -7.84467 -20.7729 -16.1343 -0.823939 0.749717 -82.8989 -56.3057 89.9701 -30.694 -10.9747 -28.3008 -3.47198 48.8329 -5.05942 4.38147 -0.740185 -15.3081 -0.110893 -10.7701 38.6346 9.24141 -20.3795 -41.3611 
177.346 91.6843 -183.459 98.0291 61.6286 80.1008 177.878 33.6171 80.5051 -50.9769 18.8491 0.991584 54.9036 -3.46718 7.16279 39.3527 4.3292 0.774065 170.346 34.5518 86.5048 -56.3469 -11.1508 1.54839 64.3439 -0.0970487 4.75628 32.0383 -4.30632 1.07428 -0.0666483 9.71516 -90.4202 7.4431 -0.315321 -0.816856 -4.22808 -0.350978 -0.802189 -26.7611 -0.0552692 -0.87386 -6.74848 -0.0552814 -0.873855 95.6479 -48.2879 -92.3399 29.5302 -6.01896 -11.8482 -0.0703601 -4.18976 -29.2966 -16.2756 -0.791826 0.464074 -85.0111 -58.765 87.2787 -26.3586 -6.57999 -34.078 1.40017 45.0116 -16.428 6.12593 -1.05866 -17.3098 34.5304 5.39721 55.8374 -31.1422 -5.35075 -60.019 
174.218 86.9413 -179.02 104.338 64.1045 75.6981 -175.933 44.6765 79.5772 -67.2164 22.5379 0.476544 53.2164 -5.9029 5.23818 34.401 2.24646 7.89503 168.859 40.0564 87.3558 -63.3085 -14.6417 2.27155 61.8434 1.15679 -2.3967 36.7424 -10.0785 3.3262 0.227943 11.0022 -91.1785 4.86332 -0.0284994 -2.31153 -6.80969 -0.130174 -2.30805 -29.3293 0.667354 -2.21333 -9.31668 0.667363 -2.21334 95.9335 -50.117 -91.6617 21.4835 1.86693 -21.5988 -2.18964 -4.6701 -40.7959 -15.5549 -0.632146 -0.479625 -88.1981 -58.123 82.8163 -33.3724 -7.96418 -40.1508 -1.38392 35.1579 -8.08532 10.284 -1.59146 -17.8431 49.7131 11.0431 56.5485 -47.155 2.82478 -65.0757 
170.637 82.8761 -175.898 107.766 60.9228 74.9807 -173.848 46.9283 80.5103 -88.347 17.965 3.61851 57.5433 -0.0295906 7.31744 41.8516 6.02093 9.91432 169.631 44.4382 89.6311 -68.9878 -14.2972 1.52561 62.5297 0.567809 -1.58266 33.9148 -6.53646 3.5735 0.00153453 11.7289 -91.7237 3.39167 -0.683335 -3.37103 -8.2834 -0.830941 -3.33775 -30.7833 0.360732 -3.42057 -10.7707 0.36073 -3.42057 95.0661 -47.8883 -93.3158 16.7037 3.80743 -31.1325 -6.70793 -4.20579 -59.196 -14.0808 -0.498326 -1.02765 -90.9617 -59.3739 79.2721 -32.1668 -12.2464 -41.4801 -4.63063 35.7342 1.01094 8.13963 -1.07965 -16.052 57.3295 17.379 55.9381 -54.5533 9.16379 -64.1212 
166.566 80.9239 -172.652 113.275 62.7695 72.2933 179.782 39.4147 87.8972 -102.263 13.7042 6.10722 58.0872 0.748772 8.11422 45.5486 7.87418 9.57754 168.825 45.13 89.9357 -68.1445 -14.8644 2.15742 62.4614 0.565038 -1.96187 31.454 -3.49371 2.49419 -0.28038 11.5988 -91.7846 3.6418 -1.27422 -3.49123 -8.03306 -1.42654 -3.43187 -30.531 -0.166878 -3.7125 -10.5183 -0.166889 -3.71249 96.0592 -49.4882 -91.5554 19.1983 0.805722 -21.8921 -5.3637 -4.04182 -53.2068 -15.7754 -0.439963 -1.92017 -90.8386 -56.4403 78.8597 -27.8444 -10.4537 -43.7062 -2.48329 33.1621 -7.2977 7.8169 -1.09204 -16.2296 56.1488 15.1592 52.206 -53.6963 8.08971 -60.5299 
160.41 84.6361 -166.681 120.007 69.1328 63.7109 175.43 31.6665 89.334 -94.9585 15.9112 6.81086 58.4518 4.7785 13.7652 45.438 7.85709 9.87276 170.916 40.6154 81.2476 -51.2154 -13.7155 3.45626 59.8598 8.33755 4.20228 23.0476 7.31717 1.92246 -1.08819 11.2766 -91.1595 4.28948 -2.64467 -2.25348 -7.38048 -2.74129 -2.13492 -29.9119 -1.8454 -2.9438 -9.8992 -1.84539 -2.9438 94.7832 -55.7831 -92.6625 24.1707 -1.66351 1.23021 3.19418 3.16273 -38.3458 -11.2575 -0.188898 -3.49843 -88.4656 -50.1469 81.0551 -24.4977 -4.26721 -51.0937 8.74706 22.7771 -39.7412 10.413 -1.84817 -19.7406 48.997 9.75469 48.9957 -43.5101 1.35913 -57.2189 
149.399 91.0247 -158.97 105.315 64.719 75.0695 176.438 32.8933 83.877 -75.0527 22.6131 4.89341 58.5824 1.57473 6.19877 48.0354 8.53822 5.37397 175.014 38.2033 76.4209 -31.5054 -13.4941 2.65672 49.3691 23.5877 18.2891 19.3468 13.4872 -3.25319 -0.557421 11.0605 -90.8153 4.73996 -1.44779 -1.57977 -6.93105 -1.51589 -1.51453 -29.4615 -0.906175 -1.94174 -9.44888 -0.906165 -1.94176 92.4502 -55.6267 -96.0615 28.7834 -1.07877 8.94152 5.97357 7.21284 -35.7911 -11.4883 -0.370279 -1.48806 -87.4652 -49.7945 82.4916 -24.3932 -2.43904 -53.4673 17.6114 20.5717 -56.4101 16.4568 -2.04714 -16.1301 44.5887 9.84758 52.2009 -33.4108 -5.26031 -53.0994 
138.846 88.4811 -152.756 107.975 47.4698 77.8227 177.023 28.5638 85.0051 -64.152 27.7392 4.37659 58.4853 1.14237 11.6132 47.8121 8.02991 2.36734 167.982 41.0156 85.4604 -82.9072 -14.301 0.0843428 57.9125 8.84997 5.82131 28.7003 0.321245 -5.35876 0.205768 11.3581 -90.4267 4.16344 0.238984 -0.844963 -7.50756 0.201559 -0.854668 -30.0425 0.481875 -0.734088 -10.0299 0.481886 -0.734092 94.4058 -54.2366 -93.4197 22.6596 5.10177 -7.07377 3.82639 4.24075 -52.9201 -12.5062 -0.0474903 -4.95562 -86.6087 -53.4795 84.3354 -22.1525 -11.2131 -27.6573 7.68925 24.1156 -36.1406 16.5734 -2.09529 -16.3599 39.6193 6.02951 30.0407 -17.0116 -5.55211 -28.9832 
127.868 86.6822 -145.139 105.3 35.4469 81.2808 178.421 30.7438 86.3058 -53.594 22.4723 2.80038 57.5291 1.52436 16.0735 41.323 5.38192 3.16812 170.364 35.7246 86.7474 -109.507 -23.071 -2.68929 60.7227 1.22835 0.082836 35.4227 -9.37885 -4.75497 0.489834 11.0081 -89.886 4.85231 1.02538 0.210894 -6.81842 1.03366 0.165547 -29.3546 0.914593 0.509319 -9.34194 0.914585 0.509305 96.2227 -48.2817 -91.4377 25.0353 -5.83268 -19.2234 -18.0809 1.4839 -94.341 -15.394 -0.920861 1.74254 -85.7581 -59.5428 86.3532 -14.52 -18.1707 4.04828 -2.64956 32.0943 -14.4895 15.7674 -1.83821 -15.2551 37.7479 4.09261 12.124 -11.5061 -0.962619 -9.51493 
115.159 91.2797 -132.374 96.6378 38.2487 87.6682 174.099 36.1037 93.2234 -33.5142 22.094 2.55994 48.2511 -14.5493 -3.47738 37.1067 3.68156 10.1367 165.258 31.3838 94.3261 -79.042 -23.9497 2.32203 59.6876 4.97279 5.86504 33.1636 -6.10545 -4.46925 0.698654 10.6159 -89.9848 5.64119 1.40213 -0.00118558 -6.02898 1.40072 -0.0629206 -28.57 1.33766 0.420344 -8.55734 1.33766 0.420342 96.5341 -47.563 -91.0247 22.0948 -20.9322 -18.09 -23.5419 11.8727 -91.9139 -7.62516 -0.481339 1.07126 -86.9062 -57.9761 84.5689 -18.2498 -17.0508 2.49261 -3.93415 29.3934 -12.7312 11.6317 -1.36823 -14.771 35.9692 1.3424 9.3803 -5.06409 -2.88591 -2.18853 
103.006 88.497 -119.79 106.815 49.4295 78.8463 179.902 37.881 87.5704 -76.2053 12.8494 4.26911 51.9864 -7.78806 1.85801 43.9784 7.51752 13.8594 165.446 24.7857 96.7959 -62.8359 -16.7006 4.53401 66.4676 -6.59133 -2.02673 35.3461 -8.40314 2.75106 0.158558 11.3085 -90.2282 4.25715 0.224281 -0.448703 -7.41387 0.204331 -0.458158 -29.9487 0.348772 -0.360558 -9.93608 0.348787 -0.360562 95.5282 -50.6303 -92.2223 25.3936 -17.9128 -10.2905 -15.6252 -1.30503 -60.3798 -12.3006 -0.327979 -2.1533 -87.2123 -55.5641 83.7936 -19.638 -13.2543 -25.7374 -0.253449 33.7643 -16.7081 12.9843 -1.87778 -17.5691 29.9179 -1.02503 4.68548 -2.7441 -2.84112 0.659074 
